<svg xmlns="http://www.w3.org/2000/svg" viewBox="0 0 507.58 123.32"><defs><style>.cls-1{fill:#092432;}.cls-2{fill:#f47920;}</style></defs><title>nintex</title><g id="Layer_1" data-name="Layer 1"><polygon class="cls-1" points="87.09 61.66 123.33 97.9 97.89 123.33 36.23 61.66 97.89 0 123.33 25.43 87.09 61.66"/><polygon class="cls-2" points="87.09 61.66 25.43 123.33 0 97.9 36.23 61.66 0 25.43 25.43 0 87.09 61.66"/><path class="cls-1" d="M202.15,33.58a31.85,31.85,0,0,0-12,2.14,22.49,22.49,0,0,0-8,5.37V34.24H168V94.52h14.87V64.05c0-5.61,1.45-10,4.31-12.92s6.79-4.45,11.73-4.45c4.35,0,7.74,1.27,10.07,3.78s3.53,6.34,3.53,11.37V94.52h14.88V60.05c0-8.68-2.33-15.34-6.93-19.78S209.73,33.58,202.15,33.58Z"/><rect class="cls-1" x="241.24" y="34.24" width="14.88" height="60.27"/><path class="cls-1" d="M255.39,10.23a9.66,9.66,0,0,0-6.66-2.4,9.4,9.4,0,0,0-6.67,2.52,8.3,8.3,0,0,0-2.71,6.3,8.3,8.3,0,0,0,2.71,6.3,9.4,9.4,0,0,0,6.67,2.52,9.17,9.17,0,0,0,6.73-2.64,8.87,8.87,0,0,0,2.65-6.51A7.87,7.87,0,0,0,255.39,10.23Z"/><path class="cls-1" d="M304.92,33.58a31.9,31.9,0,0,0-12,2.14,22.49,22.49,0,0,0-8,5.37V34.24H270.78V94.52h14.88V64.05c0-5.61,1.44-10,4.3-12.92s6.79-4.45,11.73-4.45c4.35,0,7.74,1.27,10.07,3.78s3.53,6.34,3.53,11.37V94.52h14.88V60.05c0-8.68-2.33-15.34-6.93-19.78S312.49,33.58,304.92,33.58Z"/><path class="cls-1" d="M376.31,80.53a11.74,11.74,0,0,1-7.46,2.33,7.48,7.48,0,0,1-5.74-2.11c-1.31-1.42-2-3.53-2-6.27V46.79H377V34.69H361.14V21.14H346.26V34.69h-9.77v12.1h9.77v28c0,6.63,1.85,11.75,5.48,15.24s8.83,5.24,15.44,5.24a27.28,27.28,0,0,0,7.53-1,16.85,16.85,0,0,0,6.11-3.09l.28-.23-4.26-10.84Z"/><path class="cls-1" d="M440.29,48.43a27.74,27.74,0,0,0-10.84-11,31.79,31.79,0,0,0-15.73-3.89,32.66,32.66,0,0,0-16,3.94,28.59,28.59,0,0,0-11.12,11,31.63,31.63,0,0,0-4,15.84,31.23,31.23,0,0,0,4.12,16,28.57,28.57,0,0,0,11.69,11,40.57,40.57,0,0,0,31.38,1.47,25.72,25.72,0,0,0,10.3-7.36l.28-.33-8.07-9.28-.38.39a21.23,21.23,0,0,1-15.74,6.29,20.55,20.55,0,0,1-12.52-3.73,15.6,15.6,0,0,1-6.07-9.48h46.35l0-.46c.15-1.83.23-3.19.23-4.15A33.22,33.22,0,0,0,440.29,48.43ZM402.78,49.5a17.56,17.56,0,0,1,21.93,0,15.86,15.86,0,0,1,5.19,9.56H397.43A16,16,0,0,1,402.78,49.5Z"/><polygon class="cls-1" points="484 63.71 506.58 34.24 490.33 34.24 476.04 53.33 461.75 34.24 445.07 34.24 467.53 63.93 444.06 94.52 460.64 94.52 475.71 74.32 490.66 94.52 507.58 94.52 484 63.71"/></g></svg>